<svg width="40" height="40" viewBox="0 0 40 40" fill="none" xmlns="http://www.w3.org/2000/svg">
<path d="M13.1875 2.56953L10.6406 5.11094L12.3047 6.76485L14.8438 4.225L13.1875 2.56953ZM15.8359 5.22266L15.0625 5.99688L24.6719 15.6094L25.4453 14.8359L15.8359 5.22266ZM28.2891 6.6336C28 6.6336 27.7109 6.64141 27.4375 6.65703C24.9453 6.7961 23.0078 7.57578 21.3203 8.71875L26.4375 13.8438C26.7109 14.4141 30.5 21.3594 31.5547 23.4766C30.7969 22.9766 21.9141 18.3672 21.9141 18.3672L20.7188 17.1797V28.1406C22.5859 27 24.6328 25.9766 27.25 25.7031C30.1797 25.3906 33.7734 26.0391 38.5156 28.2891V9.27344C34.4766 7.47735 31.2266 6.70391 28.5781 6.64141C28.4766 6.64141 28.3828 6.63282 28.2891 6.6336ZM10.2578 6.71407C7.84375 6.94766 4.95625 7.73438 1.48828 9.27344V28.2891C6.23828 26.0391 9.82813 25.3906 12.7578 25.7031C15.3359 26.1094 17.2969 26.9375 19.2891 28.1406V15.75C16.2734 12.7422 13.2656 9.72657 10.2578 6.71407ZM14.0703 6.99141L13.2969 7.76407L22.9063 17.375L23.6797 16.6016L14.0703 6.99141ZM26.25 16.0234L24.1016 18.1719L28.4063 20.3281L26.25 16.0234ZM11.2344 27.0859C8.73438 27.1094 5.62109 27.8516 1.48828 29.8984V33.2188C6.23828 30.9688 9.82813 30.3203 12.7578 30.6328C14.2109 30.7891 15.4844 31.1719 16.6484 31.6719C16.2813 32.1484 15.9219 32.7109 15.5625 33.3672H24.7188C24.25 32.7266 23.7969 32.1641 23.3359 31.6797C24.5078 31.1719 25.7891 30.7891 27.25 30.6328C30.1797 30.3203 33.7734 30.9688 38.5156 33.2188V29.8984C34.3672 27.8438 31.2422 27.0938 28.7344 27.0859H28.4922C28.1172 27.0938 27.7578 27.1172 27.4063 27.1563C24.75 27.4375 22.75 28.5625 20.7188 29.8438C20.2734 29.7813 19.7031 29.7031 19.2891 29.7734C17.1641 28.5078 14.7422 27.3984 12.6094 27.1563C12.1719 27.1094 11.7109 27.0859 11.2344 27.0859Z" fill="white"/>
</svg>
