<svg width="119" height="120" viewBox="0 0 119 120" fill="none" xmlns="http://www.w3.org/2000/svg">
<g clip-path="url(#clip0_651_1374)">
<path d="M2.55389 59.282C2.5511 69.3643 5.18331 79.209 10.1884 87.8862L2.07523 117.534L32.3902 109.578C40.775 114.147 50.1694 116.54 59.7161 116.541H59.7412C91.2566 116.541 116.911 90.8745 116.924 59.3271C116.93 44.0401 110.987 29.6652 100.19 18.8503C89.3944 8.03638 75.0367 2.07778 59.7389 2.0708C28.2198 2.0708 2.56737 27.7359 2.55436 59.282" fill="url(#paint0_linear_651_1374)"/>
<path d="M0.513339 59.2632C0.510086 69.7083 3.23663 79.9051 8.42018 88.893L0.0160828 119.603L31.418 111.363C40.0703 116.084 49.8119 118.573 59.7245 118.577H59.75C92.3961 118.577 118.972 91.9874 118.986 59.3107C118.991 43.4744 112.835 28.5828 101.652 17.3805C90.467 6.17953 75.5958 0.00651162 59.75 0C27.0984 0 0.526351 26.586 0.513339 59.2632ZM19.2144 87.3451L18.0419 85.4823C13.113 77.6385 10.5114 68.5744 10.5152 59.2669C10.5254 32.1065 32.611 10.0093 59.7686 10.0093C72.9204 10.0149 85.2802 15.146 94.5766 24.4558C103.872 33.7665 108.988 46.1432 108.984 59.3069C108.972 86.4674 86.8863 108.567 59.75 108.567H59.7305C50.8947 108.563 42.229 106.188 34.6716 101.7L32.8731 100.632L14.2385 105.522L19.2144 87.3451Z" fill="url(#paint1_linear_651_1374)"/>
<path d="M44.9438 34.4876C43.835 32.021 42.6681 31.9713 41.6136 31.928C40.7501 31.8908 39.7631 31.8936 38.7769 31.8936C37.7898 31.8936 36.1861 32.2652 34.8305 33.7466C33.4735 35.2294 29.6497 38.8127 29.6497 46.1006C29.6497 53.3885 34.9536 60.4322 35.693 61.4215C36.4333 62.409 45.9323 77.8434 60.9764 83.7811C73.4794 88.7155 76.0238 87.7341 78.7373 87.4867C81.4513 87.2402 87.4946 83.9043 88.7275 80.4453C89.9613 76.9867 89.9613 74.022 89.5914 73.4025C89.2215 72.7853 88.2344 72.4146 86.7543 71.6741C85.2741 70.9336 77.997 67.3494 76.6404 66.855C75.2834 66.3611 74.2968 66.1146 73.3098 67.5978C72.3227 69.0788 69.4883 72.4146 68.6244 73.4025C67.7614 74.3927 66.8975 74.516 65.4178 73.775C63.9367 73.0318 59.17 71.4694 53.5148 66.4234C49.1147 62.4969 46.1442 57.648 45.2808 56.1648C44.4173 54.6839 45.1883 53.8811 45.9304 53.1429C46.5955 52.4792 47.4111 51.4132 48.1518 50.5485C48.8898 49.6834 49.1361 49.0662 49.6297 48.0783C50.1237 47.0894 49.8764 46.2243 49.507 45.4834C49.1361 44.7425 46.2599 37.4164 44.9438 34.4876Z" fill="white"/>
</g>
<defs>
<linearGradient id="paint0_linear_651_1374" x1="59.4998" y1="117.534" x2="59.4998" y2="2.0708" gradientUnits="userSpaceOnUse">
<stop stop-color="#1FAF38"/>
<stop offset="1" stop-color="#60D669"/>
</linearGradient>
<linearGradient id="paint1_linear_651_1374" x1="59.5009" y1="119.603" x2="59.5009" y2="0" gradientUnits="userSpaceOnUse">
<stop stop-color="#F9F9F9"/>
<stop offset="1" stop-color="white"/>
</linearGradient>
<clipPath id="clip0_651_1374">
<rect width="119" height="120" fill="white"/>
</clipPath>
</defs>
</svg>
